<svg xmlns="http://www.w3.org/2000/svg" xmlns:xlink="http://www.w3.org/1999/xlink" width="175px" height="100px" version="1.1" x="0px" y="0px" viewBox="0 0 100 125" enable-background="new 0 0 100 100" xml:space="preserve" fill="#fff"><path d="M52.542,43.481H24.983c-5.195,0-9.421-4.227-9.421-9.421v-1.69h44.025c5.388,0,11.572,1.071,11.572,9.424  c0,0.691-0.561,1.252-1.252,1.252s-1.252-0.561-1.252-1.252c0-5.044-2.457-6.92-9.068-6.92H18.114  c0.404,3.432,3.331,6.103,6.87,6.103h27.558c0.691,0,1.252,0.561,1.252,1.252S53.233,43.481,52.542,43.481z"/><path fill="#ffffff" stroke="#ffffff" stroke-width="4" stroke-linecap="round" stroke-miterlimit="10" d="M60.057,56.714"/><path d="M61.613,50.837H31.326c-4.58,0-8.306-3.726-8.306-8.307c0-0.691,0.561-1.252,1.252-1.252s1.252,0.561,1.252,1.252  c0,3.2,2.603,5.803,5.802,5.803h30.287c0.691,0,1.252,0.561,1.252,1.252S62.304,50.837,61.613,50.837z"/><path d="M69.907,57.966H38.502c-4.581,0-8.307-3.727-8.307-8.306c0-0.691,0.561-1.252,1.252-1.252s1.252,0.561,1.252,1.252  c0,3.199,2.603,5.802,5.803,5.802h31.405c0.691,0,1.252,0.561,1.252,1.252S70.599,57.966,69.907,57.966z"/><path d="M76.86,67.952c-4.738,0-9.179-2.285-11.959-6.274c-0.396-0.567-0.256-1.347,0.311-1.743  c0.568-0.395,1.348-0.256,1.743,0.312c2.677,3.841,7.212,5.776,11.831,5.052c6.601-1.035,11.129-7.249,10.093-13.85  c-0.501-3.198-2.218-6.009-4.833-7.916c-2.617-1.906-5.819-2.681-9.017-2.178c-0.675,0.107-1.323-0.359-1.431-1.043  c-0.107-0.683,0.359-1.324,1.043-1.431c3.857-0.604,7.723,0.328,10.879,2.629c3.156,2.3,5.227,5.692,5.832,9.551  c1.25,7.964-4.214,15.462-12.179,16.712C78.399,67.894,77.626,67.952,76.86,67.952z"/><path d="M77.72,58.679c-1.734,0-3.359-0.836-4.377-2.296c-0.395-0.567-0.256-1.347,0.312-1.743c0.567-0.396,1.349-0.256,1.743,0.312  c0.631,0.903,1.695,1.355,2.781,1.188c1.551-0.244,2.614-1.703,2.371-3.256c-0.118-0.751-0.521-1.411-1.136-1.858  c-0.614-0.449-1.364-0.63-2.118-0.512c-0.676,0.106-1.324-0.359-1.431-1.043c-0.108-0.683,0.359-1.324,1.043-1.431  c1.411-0.221,2.825,0.121,3.981,0.962c1.154,0.842,1.913,2.083,2.134,3.496c0.457,2.914-1.542,5.658-4.458,6.115  C78.282,58.657,78,58.679,77.72,58.679z"/><path d="M11.13,39.178H9.721c-0.691,0-1.252-0.561-1.252-1.252s0.561-1.252,1.252-1.252h1.409c0.691,0,1.252,0.561,1.252,1.252  S11.821,39.178,11.13,39.178z"/><path d="M18.642,47.31H9.878c-0.691,0-1.252-0.561-1.252-1.252s0.561-1.252,1.252-1.252h8.764c0.691,0,1.252,0.561,1.252,1.252  S19.333,47.31,18.642,47.31z"/><path d="M25.368,54.578h-5.943c-0.692,0-1.252-0.561-1.252-1.252s0.561-1.252,1.252-1.252h5.943c0.691,0,1.252,0.561,1.252,1.252  S26.059,54.578,25.368,54.578z"/></svg>